<svg width="16" height="19" viewBox="0 0 16 19" fill="none" xmlns="http://www.w3.org/2000/svg">
<path d="M0.308941 0.0812255C0.402713 0.0275848 0.508952 -0.000427191 0.616981 4.92467e-06C0.72501 0.00043704 0.831022 0.0292981 0.924361 0.0836872L10.5778 5.71478L7.59059 8.40293L2.08369e-07 1.57177V0.61541C-8.8944e-05 0.507055 0.0284318 0.400596 0.0826793 0.306798C0.136927 0.213 0.214978 0.135186 0.308941 0.0812255ZM2.08369e-07 3.22848V15.2341L6.67115 9.23129L2.08369e-07 3.22848ZM2.08369e-07 16.8908V17.8472C-3.18845e-05 17.9555 0.0285081 18.0618 0.0827384 18.1556C0.136969 18.2493 0.214969 18.327 0.308864 18.381C0.402759 18.4349 0.509224 18.4631 0.617509 18.4628C0.725794 18.4624 0.832065 18.4335 0.925592 18.3789L10.5778 12.7478L7.59059 10.0596L2.08369e-07 16.8908ZM11.6942 12.0967L15.6944 9.76301C15.7874 9.70883 15.8646 9.63122 15.9182 9.53792C15.9718 9.44462 16 9.3389 16 9.23129C16 9.12368 15.9718 9.01795 15.9182 8.92465C15.8646 8.83136 15.7874 8.75375 15.6944 8.69957L11.6942 6.36589L8.51003 9.23129L11.6942 12.0967Z" fill="white"/>
</svg>
