<svg width="38" height="37" viewBox="0 0 38 37" fill="none" xmlns="http://www.w3.org/2000/svg">
<g clip-path="url(#clip0_44_7)">
<path d="M30.3794 9.93049V5.78162C30.3794 5.12929 29.8584 4.60043 29.2159 4.60043H21.93V3.09251C21.93 1.38738 20.5633 0 18.8837 0H11.9957C10.316 0 8.94946 1.38738 8.94946 3.09251V4.60043H1.66352C1.02095 4.60043 0.5 5.12935 0.5 5.78162V23.2206C0.5 25.6683 2.46145 27.6595 4.87226 27.6595H21.28C23.5825 31.5492 26.367 35.1213 26.8803 35.771C27.1013 36.0504 27.4351 36.2128 27.7879 36.2128C28.1407 36.2128 28.4745 36.0504 28.6955 35.771C29.5965 34.6308 37.5 24.4845 37.5 19.4227C37.5 14.8983 34.4786 11.0857 30.3794 9.93049ZM11.2765 3.09251C11.2765 2.68995 11.5992 2.36237 11.9957 2.36237H18.8837C19.2802 2.36237 19.6029 2.68995 19.6029 3.09251V4.60043H11.2765V3.09251ZM2.82704 6.9628H28.0523V9.57664C27.9637 9.57432 27.8771 9.56308 27.7879 9.56308C24.3092 9.56308 21.2607 11.4358 19.5451 14.2339H7.32599C4.84527 14.2339 2.82699 12.185 2.82699 9.6666L2.82704 6.9628ZM9.13326 16.9071V17.9012H8.15381V16.9071H9.13326ZM4.87226 25.2972C3.74453 25.2972 2.82699 24.3657 2.82699 23.2206V14.8646C3.67006 15.6176 4.69414 16.1634 5.82671 16.4224V19.0824C5.82671 19.7347 6.34766 20.2636 6.99023 20.2636H10.2967C10.9393 20.2636 11.4602 19.7347 11.4602 19.0824V16.5963H18.4871C18.2224 17.4926 18.0758 18.4402 18.0758 19.4227C18.0758 21.0215 18.8652 23.1278 19.9724 25.2972L4.87226 25.2972ZM27.7879 33.111C25.114 29.5478 20.4028 22.6086 20.4028 19.4227C20.4028 15.2888 23.7158 11.9255 27.7879 11.9255C31.86 11.9255 35.173 15.2888 35.173 19.4227C35.173 22.6057 30.4615 29.5467 27.7879 33.111Z" fill="#FF9297"/>
<path d="M27.7881 15.7283C25.7815 15.7283 24.1489 17.3855 24.1489 19.4227C24.1489 21.4598 25.7814 23.117 27.7881 23.117C29.7947 23.117 31.4272 21.4598 31.4272 19.4227C31.4272 17.3855 29.7947 15.7283 27.7881 15.7283ZM27.7881 20.7547C27.0645 20.7547 26.476 20.1571 26.476 19.4227C26.476 18.6882 27.0645 18.0906 27.7881 18.0906C28.5116 18.0906 29.1001 18.6882 29.1001 19.4227C29.1001 20.1571 28.5116 20.7547 27.7881 20.7547Z" fill="#FF9297"/>
</g>
<defs>
<clipPath id="clip0_44_7">
<rect width="37" height="36.2128" fill="white" transform="translate(0.5)"/>
</clipPath>
</defs>
</svg>
