<svg width="18" height="21" viewBox="0 0 18 21" fill="none" xmlns="http://www.w3.org/2000/svg">
<path d="M14.3059 19.562C13.1965 20.6374 11.9852 20.4676 10.8192 19.9582C9.58522 19.4374 8.45316 19.4148 7.15129 19.9582C5.52113 20.66 4.66077 20.4563 3.6872 19.562C-1.83724 13.8677 -1.02216 5.19614 5.24944 4.87917C6.77772 4.95841 7.84185 5.71689 8.73617 5.78481C10.072 5.51312 11.3512 4.732 12.7776 4.83388C14.487 4.96973 15.7776 5.64897 16.6266 6.87159C13.0946 8.98853 13.9323 13.6413 17.17 14.9432C16.5247 16.6412 15.687 18.328 14.2946 19.5733L14.3059 19.562ZM8.62297 4.81124C8.45316 2.28676 10.5022 0.20377 12.8569 0C13.1852 2.92071 10.2078 5.09426 8.62297 4.81124Z" fill="white"/>
</svg>
