<svg width="20" height="20" viewBox="0 0 20 20" fill="none" xmlns="http://www.w3.org/2000/svg">
<path d="M10 0.4375C8.10872 0.4375 6.25991 0.998331 4.68736 2.04907C3.11482 3.09981 1.88917 4.59327 1.16541 6.34059C0.441643 8.08791 0.252274 10.0106 0.621245 11.8656C0.990216 13.7205 1.90096 15.4244 3.2383 16.7617C4.57564 18.099 6.27951 19.0098 8.13445 19.3788C9.9894 19.7477 11.9121 19.5584 13.6594 18.8346C15.4067 18.1108 16.9002 16.8852 17.9509 15.3126C19.0017 13.7401 19.5625 11.8913 19.5625 10C19.5575 7.46539 18.5485 5.03601 16.7562 3.24376C14.964 1.45152 12.5346 0.442455 10 0.4375ZM10 18.4375C8.33122 18.4375 6.69992 17.9426 5.31238 17.0155C3.92484 16.0884 2.84338 14.7706 2.20477 13.2289C1.56616 11.6871 1.39907 9.99064 1.72463 8.35393C2.05019 6.71721 2.85379 5.21379 4.03379 4.03379C5.2138 2.85378 6.71722 2.05019 8.35393 1.72462C9.99064 1.39906 11.6871 1.56615 13.2289 2.20477C14.7706 2.84338 16.0884 3.92484 17.0155 5.31238C17.9427 6.69992 18.4375 8.33122 18.4375 10C18.435 12.237 17.5453 14.3817 15.9635 15.9635C14.3817 17.5453 12.237 18.435 10 18.4375ZM6.8125 10C6.8125 10.669 7.023 11.321 7.41417 11.8638C7.80534 12.4065 8.35736 12.8124 8.99203 13.0239C9.6267 13.2355 10.3118 13.242 10.9504 13.0425C11.589 12.843 12.1486 12.4477 12.55 11.9125C12.6395 11.7932 12.7728 11.7143 12.9205 11.6932C13.0681 11.6721 13.2182 11.7105 13.3375 11.8C13.4569 11.8895 13.5358 12.0228 13.5569 12.1705C13.5779 12.3181 13.5395 12.4682 13.45 12.5875C12.9069 13.3116 12.1498 13.8465 11.2859 14.1163C10.4219 14.3862 9.49494 14.3774 8.63627 14.0912C7.7776 13.805 7.03075 13.2558 6.50152 12.5216C5.97229 11.7873 5.6875 10.9051 5.6875 10C5.6875 9.09488 5.97229 8.21271 6.50152 7.47844C7.03075 6.74417 7.7776 6.19503 8.63627 5.9088C9.49494 5.62258 10.4219 5.61378 11.2859 5.88366C12.1498 6.15354 12.9069 6.68841 13.45 7.4125C13.4943 7.47159 13.5266 7.53884 13.5449 7.6104C13.5632 7.68196 13.5673 7.75642 13.5569 7.82955C13.5464 7.90268 13.5217 7.97303 13.484 8.03659C13.4464 8.10015 13.3966 8.15568 13.3375 8.2C13.2784 8.24432 13.2112 8.27657 13.1396 8.2949C13.068 8.31323 12.9936 8.31729 12.9205 8.30685C12.8473 8.2964 12.777 8.27165 12.7134 8.23402C12.6499 8.19638 12.5943 8.14659 12.55 8.0875C12.1486 7.5523 11.589 7.15696 10.9504 6.95749C10.3118 6.75801 9.6267 6.76452 8.99203 6.97607C8.35736 7.18763 7.80534 7.59351 7.41417 8.13624C7.023 8.67896 6.8125 9.331 6.8125 10Z" fill="white"/>
</svg>
