<svg width="37" height="37" viewBox="0 0 37 37" fill="none" xmlns="http://www.w3.org/2000/svg">
<g clip-path="url(#clip0_46_15)">
<path d="M29.8794 9.93049V5.78162C29.8794 5.12929 29.3584 4.60043 28.7159 4.60043H21.43V3.09251C21.43 1.38738 20.0633 0 18.3837 0H11.4957C9.81604 0 8.44946 1.38738 8.44946 3.09251V4.60043H1.16352C0.520949 4.60043 0 5.12935 0 5.78162V23.2206C0 25.6683 1.96145 27.6595 4.37226 27.6595H20.78C23.0825 31.5492 25.867 35.1213 26.3803 35.771C26.6013 36.0504 26.9351 36.2128 27.2879 36.2128C27.6407 36.2128 27.9745 36.0504 28.1955 35.771C29.0965 34.6308 37 24.4845 37 19.4227C37 14.8983 33.9786 11.0857 29.8794 9.93049ZM10.7765 3.09251C10.7765 2.68995 11.0992 2.36237 11.4957 2.36237H18.3837C18.7802 2.36237 19.1029 2.68995 19.1029 3.09251V4.60043H10.7765V3.09251ZM2.32704 6.9628H27.5523V9.57664C27.4637 9.57432 27.3771 9.56308 27.2879 9.56308C23.8092 9.56308 20.7607 11.4358 19.0451 14.2339H6.82599C4.34527 14.2339 2.32699 12.185 2.32699 9.6666L2.32704 6.9628ZM8.63326 16.9071V17.9012H7.65381V16.9071H8.63326ZM4.37226 25.2972C3.24453 25.2972 2.32699 24.3657 2.32699 23.2206V14.8646C3.17006 15.6176 4.19414 16.1634 5.32671 16.4224V19.0824C5.32671 19.7347 5.84766 20.2636 6.49023 20.2636H9.79672C10.4393 20.2636 10.9602 19.7347 10.9602 19.0824V16.5963H17.9871C17.7224 17.4926 17.5758 18.4402 17.5758 19.4227C17.5758 21.0215 18.3652 23.1278 19.4724 25.2972L4.37226 25.2972ZM27.2879 33.111C24.614 29.5478 19.9028 22.6086 19.9028 19.4227C19.9028 15.2888 23.2158 11.9255 27.2879 11.9255C31.36 11.9255 34.673 15.2888 34.673 19.4227C34.673 22.6057 29.9615 29.5467 27.2879 33.111Z" fill="#7CE8CE"/>
<path d="M27.2881 15.7283C25.2815 15.7283 23.6489 17.3855 23.6489 19.4227C23.6489 21.4598 25.2814 23.117 27.2881 23.117C29.2947 23.117 30.9272 21.4598 30.9272 19.4227C30.9272 17.3855 29.2947 15.7283 27.2881 15.7283ZM27.2881 20.7547C26.5645 20.7547 25.976 20.1571 25.976 19.4227C25.976 18.6882 26.5645 18.0906 27.2881 18.0906C28.0116 18.0906 28.6001 18.6882 28.6001 19.4227C28.6001 20.1571 28.0116 20.7547 27.2881 20.7547Z" fill="#7CE8CE"/>
</g>
<defs>
<clipPath id="clip0_46_15">
<rect width="37" height="36.2128" fill="white"/>
</clipPath>
</defs>
</svg>
